<?xml version="1.0" standalone="yes"?>

<svg version="1.1" viewBox="0.0 0.0 960.0 160.0" fill="none" stroke="none" stroke-linecap="square" stroke-miterlimit="10" xmlns="http://www.w3.org/2000/svg" xmlns:xlink="http://www.w3.org/1999/xlink"><clipPath id="p.0"><path d="m0 0l960.0 0l0 720.0l-960.0 0l0 -720.0z" clip-rule="nonzero"></path></clipPath><g clip-path="url(#p.0)"><path fill="#000000" fill-opacity="0.0" d="m0 0l960.0 0l0 720.0l-960.0 0z" fill-rule="nonzero"></path><path fill="#d9d2e9" d="m171.57742 13.0l139.32678 0l0 112.0l-139.32678 0z" fill-rule="nonzero"></path><path stroke="#8e7cc3" stroke-width="1.0" stroke-linejoin="round" stroke-linecap="butt" d="m171.57742 13.0l139.32678 0l0 112.0l-139.32678 0z" fill-rule="nonzero"></path><path fill="#000000" d="m196.42838 38.64l-2.921875 0l-1.484375 -5.984375q-0.03125 -0.125 -0.078125 -0.34375q-0.046875 -0.234375 -0.109375 -0.515625q-0.0625 -0.28125 -0.125 -0.578125q-0.046875 -0.3125 -0.109375 -0.59375q-0.046875 -0.296875 -0.078125 -0.546875q-0.03125 -0.25 -0.046875 -0.390625q-0.015625 0.140625 -0.0625 0.390625q-0.03125 0.25 -0.09375 0.53125q-0.046875 0.28125 -0.09375 0.59375q-0.046875 0.3125 -0.109375 0.59375q-0.046875 0.28125 -0.109375 0.515625q-0.046875 0.234375 -0.078125 0.359375l-1.46875 5.96875l-2.9375 0l-2.921875 -12.140625l2.53125 0l1.375 6.625q0.03125 0.140625 0.078125 0.390625q0.046875 0.25 0.09375 0.578125q0.0625 0.3125 0.125 0.65625q0.0625 0.34375 0.125 0.6875q0.0625 0.328125 0.109375 0.609375q0.046875 0.28125 0.0625 0.46875q0.03125 -0.1875 0.078125 -0.46875q0.046875 -0.28125 0.09375 -0.59375q0.046875 -0.328125 0.109375 -0.65625q0.0625 -0.34375 0.109375 -0.640625q0.0625 -0.296875 0.09375 -0.515625q0.046875 -0.234375 0.078125 -0.34375l1.6875 -6.796875l2.25 0l1.6875 6.796875q0.03125 0.109375 0.078125 0.34375q0.046875 0.21875 0.09375 0.515625q0.0625 0.296875 0.109375 0.640625q0.0625 0.328125 0.109375 0.65625q0.0625 0.3125 0.109375 0.59375q0.046875 0.28125 0.0625 0.46875q0.03125 -0.1875 0.078125 -0.46875q0.046875 -0.28125 0.09375 -0.609375q0.0625 -0.34375 0.125 -0.6875q0.0625 -0.34375 0.125 -0.65625q0.0625 -0.328125 0.109375 -0.578125q0.046875 -0.25 0.0625 -0.390625l1.375 -6.625l2.53125 0l-2.921875 12.140625zm8.308975 -7.65625q-0.671875 0 -1.125 0.484375q-0.4375 0.46875 -0.5 1.484375l3.234375 0q-0.015625 -0.4375 -0.125 -0.78125q-0.09375 -0.359375 -0.296875 -0.625q-0.1875 -0.265625 -0.484375 -0.40625q-0.296875 -0.15625 -0.703125 -0.15625zm0.328125 7.828125q-1.0 0 -1.84375 -0.296875q-0.828125 -0.296875 -1.4375 -0.875q-0.609375 -0.578125 -0.953125 -1.46875q-0.328125 -0.90625 -0.328125 -2.109375q0 -1.21875 0.3125 -2.125q0.3125 -0.921875 0.859375 -1.53125q0.546875 -0.609375 1.328125 -0.90625q0.78125 -0.3125 1.71875 -0.3125q0.921875 0 1.65625 0.28125q0.75 0.265625 1.265625 0.8125q0.53125 0.546875 0.796875 1.328125q0.28125 0.78125 0.28125 1.796875l0 1.21875l-5.65625 0q0.015625 0.53125 0.171875 0.96875q0.15625 0.421875 0.421875 0.71875q0.28125 0.296875 0.671875 0.453125q0.40625 0.15625 0.90625 0.15625q0.421875 0 0.796875 -0.046875q0.375 -0.046875 0.734375 -0.140625q0.359375 -0.09375 0.703125 -0.21875q0.359375 -0.140625 0.71875 -0.328125l0 1.96875q-0.328125 0.171875 -0.671875 0.296875q-0.328125 0.109375 -0.703125 0.1875q-0.375 0.09375 -0.8125 0.125q-0.421875 0.046875 -0.9375 0.046875zm10.943588 -9.625q0.703125 0 1.296875 0.3125q0.59375 0.296875 1.015625 0.90625q0.421875 0.609375 0.65625 1.515625q0.234375 0.890625 0.234375 2.0625q0 1.1875 -0.234375 2.09375q-0.234375 0.90625 -0.671875 1.515625q-0.421875 0.59375 -1.03125 0.90625q-0.609375 0.3125 -1.34375 0.3125q-0.453125 0 -0.828125 -0.109375q-0.359375 -0.09375 -0.640625 -0.25q-0.28125 -0.171875 -0.5 -0.375q-0.203125 -0.21875 -0.375 -0.453125l-0.171875 0l-0.421875 1.015625l-1.9375 0l0 -12.921875l2.53125 0l0 3.015625q0 0.265625 -0.015625 0.59375q-0.015625 0.3125 -0.03125 0.59375q-0.03125 0.3125 -0.046875 0.640625l0.09375 0q0.171875 -0.296875 0.390625 -0.53125q0.234375 -0.25 0.53125 -0.4375q0.296875 -0.1875 0.65625 -0.296875q0.375 -0.109375 0.84375 -0.109375zm-0.859375 2.03125q-0.421875 0 -0.71875 0.15625q-0.296875 0.140625 -0.484375 0.453125q-0.171875 0.296875 -0.265625 0.78125q-0.078125 0.46875 -0.09375 1.078125l0 0.28125q0 0.671875 0.078125 1.203125q0.078125 0.515625 0.265625 0.875q0.1875 0.34375 0.484375 0.53125q0.296875 0.171875 0.75 0.171875q0.75 0 1.09375 -0.71875q0.359375 -0.71875 0.359375 -2.078125q0 -1.375 -0.359375 -2.046875q-0.34375 -0.6875 -1.109375 -0.6875zm15.769577 0.046875l-1.890625 0l0 7.375l-2.53125 0l0 -7.375l-1.390625 0l0 -1.21875l1.390625 -0.6875l0 -0.6875q0 -0.875 0.21875 -1.453125q0.21875 -0.59375 0.609375 -0.9375q0.40625 -0.359375 0.96875 -0.5q0.5625 -0.140625 1.265625 -0.140625q0.765625 0 1.28125 0.125q0.53125 0.109375 0.890625 0.25l-0.59375 1.859375q-0.25 -0.078125 -0.546875 -0.15625q-0.28125 -0.078125 -0.65625 -0.078125q-0.5 0 -0.703125 0.328125q-0.203125 0.3125 -0.203125 0.8125l0 0.578125l1.890625 0l0 1.90625zm6.725189 -2.078125q0.09375 0 0.21875 0q0.125 0 0.234375 0.015625q0.109375 0.015625 0.203125 0.03125q0.09375 0.015625 0.140625 0.03125l0 2.375q-0.0625 -0.015625 -0.1875 -0.03125q-0.109375 -0.03125 -0.234375 -0.03125q-0.125 -0.015625 -0.25 -0.015625q-0.125 -0.015625 -0.21875 -0.015625q-0.484375 0 -0.90625 0.125q-0.40625 0.125 -0.703125 0.40625q-0.28125 0.28125 -0.45310974 0.734375q-0.15625 0.453125 -0.15625 1.109375l0 4.71875l-2.53125 0l0 -9.28125l1.921875 0l0.375 1.390625l0.125 0q0.1875 -0.359375 0.42185974 -0.640625q0.234375 -0.296875 0.515625 -0.5q0.296875 -0.203125 0.65625 -0.3125q0.359375 -0.109375 0.828125 -0.109375zm4.7874603 4.796875q0 1.390625 0.390625 2.09375q0.390625 0.6875 1.265625 0.6875q0.875 0 1.265625 -0.703125q0.390625 -0.703125 0.390625 -2.078125q0 -1.390625 -0.390625 -2.0625q-0.390625 -0.6875 -1.28125 -0.6875q-0.875 0 -1.265625 0.6875q-0.375 0.671875 -0.375 2.0625zm5.890625 0q0 1.15625 -0.296875 2.0625q-0.296875 0.890625 -0.84375 1.515625q-0.546875 0.609375 -1.34375 0.9375q-0.796875 0.3125 -1.78125 0.3125q-0.921875 0 -1.703125 -0.3125q-0.765625 -0.328125 -1.328125 -0.9375q-0.546875 -0.625 -0.875 -1.515625q-0.3125 -0.90625 -0.3125 -2.0625q0 -1.15625 0.296875 -2.046875q0.296875 -0.90625 0.84375 -1.515625q0.5625 -0.609375 1.34375 -0.921875q0.796875 -0.3125 1.78125 -0.3125q0.921875 0 1.6875 0.3125q0.78125 0.3125 1.34375 0.921875q0.5625 0.609375 0.875 1.515625q0.3125 0.890625 0.3125 2.046875zm10.428528 4.65625l-2.53125 0l0 -5.421875q0 -1.0 -0.296875 -1.5q-0.296875 -0.5 -0.96875 -0.5q-0.5 0 -0.828125 0.203125q-0.328125 0.1875 -0.53125 0.578125q-0.1875 0.390625 -0.28125 0.96875q-0.078125 0.5625 -0.078125 1.3125l0 4.359375l-2.53125 0l0 -9.28125l1.9375 0l0.34375 1.1875l0.140625 0q0.1875 -0.359375 0.46875 -0.609375q0.296875 -0.265625 0.640625 -0.421875q0.34375 -0.171875 0.71875 -0.25q0.375 -0.078125 0.78125 -0.078125q0.6875 0 1.234375 0.203125q0.5625 0.1875 0.953125 0.609375q0.40625 0.40625 0.609375 1.046875q0.21875 0.640625 0.21875 1.546875l0 6.046875zm6.582672 -1.84375q0.375 0 0.703125 -0.078125q0.34375 -0.09375 0.6875 -0.21875l0 1.890625q-0.34375 0.171875 -0.875 0.296875q-0.53125 0.125 -1.15625 0.125q-0.59375 0 -1.125 -0.140625q-0.515625 -0.140625 -0.90625 -0.5q-0.375 -0.359375 -0.59375 -0.953125q-0.21875 -0.59375 -0.21875 -1.484375l0 -4.46875l-1.21875 0l0 -1.078125l1.390625 -0.84375l0.734375 -1.953125l1.625 0l0 1.96875l2.25 0l0 1.90625l-2.25 0l0 4.46875q0 0.546875 0.265625 0.8125q0.265625 0.25 0.6875 0.25zm7.1593018 -5.8125q-0.671875 0 -1.125 0.484375q-0.4375 0.46875 -0.5 1.484375l3.234375 0q-0.015625 -0.4375 -0.125 -0.78125q-0.09375 -0.359375 -0.296875 -0.625q-0.1875 -0.265625 -0.484375 -0.40625q-0.296875 -0.15625 -0.703125 -0.15625zm0.328125 7.828125q-1.0 0 -1.84375 -0.296875q-0.828125 -0.296875 -1.4375 -0.875q-0.609375 -0.578125 -0.953125 -1.46875q-0.328125 -0.90625 -0.328125 -2.109375q0 -1.21875 0.3125 -2.125q0.3125 -0.921875 0.859375 -1.53125q0.546875 -0.609375 1.328125 -0.90625q0.78125 -0.3125 1.71875 -0.3125q0.921875 0 1.65625 0.28125q0.75 0.265625 1.265625 0.8125q0.53125 0.546875 0.796875 1.328125q0.28125 0.78125 0.28125 1.796875l0 1.21875l-5.65625 0q0.015625 0.53125 0.171875 0.96875q0.15625 0.421875 0.421875 0.71875q0.28125 0.296875 0.671875 0.453125q0.40625 0.15625 0.90625 0.15625q0.421875 0 0.796875 -0.046875q0.375 -0.046875 0.734375 -0.140625q0.359375 -0.09375 0.703125 -0.21875q0.359375 -0.140625 0.71875 -0.328125l0 1.96875q-0.328125 0.171875 -0.671875 0.296875q-0.328125 0.109375 -0.703125 0.1875q-0.375 0.09375 -0.8125 0.125q-0.421875 0.046875 -0.9375 0.046875zm14.0373535 -0.171875l-2.53125 0l0 -5.421875q0 -1.0 -0.296875 -1.5q-0.296875 -0.5 -0.96875 -0.5q-0.5 0 -0.828125 0.203125q-0.328125 0.1875 -0.53125 0.578125q-0.1875 0.390625 -0.28125 0.96875q-0.078125 0.5625 -0.078125 1.3125l0 4.359375l-2.53125 0l0 -9.28125l1.9375 0l0.34375 1.1875l0.140625 0q0.1875 -0.359375 0.46875 -0.609375q0.296875 -0.265625 0.640625 -0.421875q0.34375 -0.171875 0.71875 -0.25q0.375 -0.078125 0.78125 -0.078125q0.6875 0 1.234375 0.203125q0.5625 0.1875 0.953125 0.609375q0.40625 0.40625 0.609375 1.046875q0.21875 0.640625 0.21875 1.546875l0 6.046875zm5.551422 0.171875q-0.71875 0 -1.3125 -0.3125q-0.578125 -0.3125 -1.015625 -0.90625q-0.421875 -0.609375 -0.65625 -1.5q-0.234375 -0.890625 -0.234375 -2.078125q0 -1.1875 0.234375 -2.09375q0.234375 -0.90625 0.671875 -1.515625q0.4375 -0.609375 1.046875 -0.90625q0.609375 -0.3125 1.34375 -0.3125q0.4375 0 0.8125 0.109375q0.375 0.09375 0.671875 0.28125q0.296875 0.1875 0.53125 0.4375q0.25 0.234375 0.421875 0.53125l0.09375 0q-0.0625 -0.328125 -0.09375 -0.65625q-0.046875 -0.28125 -0.078125 -0.59375q-0.03125 -0.328125 -0.03125 -0.59375l0 -2.984375l2.53125 0l0 12.921875l-1.921875 0l-0.5 -1.203125l-0.109375 0q-0.171875 0.28125 -0.390625 0.53125q-0.21875 0.25 -0.515625 0.4375q-0.296875 0.1875 -0.671875 0.296875q-0.359375 0.109375 -0.828125 0.109375zm0.921875 -2.015625q0.4375 0 0.75 -0.15625q0.328125 -0.15625 0.515625 -0.46875q0.203125 -0.3125 0.296875 -0.765625q0.09375 -0.46875 0.109375 -1.09375l0 -0.28125q0 -0.671875 -0.09375 -1.1875q-0.078125 -0.53125 -0.28125 -0.875q-0.1875 -0.359375 -0.515625 -0.53125q-0.3125 -0.1875 -0.796875 -0.1875q-0.796875 0 -1.171875 0.71875q-0.375 0.71875 -0.375 2.078125q0 1.375 0.375 2.0625q0.375 0.6875 1.1875 0.6875z" fill-rule="nonzero"></path><path fill="#d9ead3" d="m375.5748 13.0l139.3281 0l0 112.0l-139.3281 0z" fill-rule="nonzero"></path><path stroke="#93c47d" stroke-width="1.0" stroke-linejoin="round" stroke-linecap="butt" d="m375.5748 13.0l139.3281 0l0 112.0l-139.3281 0z" fill-rule="nonzero"></path><path fill="#000000" d="m418.6254 38.64l-2.578125 0l0 -5.234375l-4.125 0l0 5.234375l-2.5625 0l0 -12.140625l2.5625 0l0 4.765625l4.125 0l0 -4.765625l2.578125 0l0 12.140625zm7.7208557 0l-2.5625 0l0 -10.0l-3.046875 0l0 -2.140625l8.640625 0l0 2.140625l-3.03125 0l0 10.0zm9.510162 0l-2.5625 0l0 -10.0l-3.046875 0l0 -2.140625l8.640625 0l0 2.140625l-3.03125 0l0 10.0zm7.6507874 -6.421875l0.515625 0q1.078125 0 1.625 -0.421875q0.5625 -0.4375 0.5625 -1.421875q0 -0.90625 -0.5 -1.328125q-0.484375 -0.4375 -1.546875 -0.4375l-0.65625 0l0 3.609375zm5.3125 -1.921875q0 0.796875 -0.25 1.53125q-0.234375 0.71875 -0.796875 1.28125q-0.546875 0.546875 -1.453125 0.890625q-0.890625 0.328125 -2.21875 0.328125l-0.59375 0l0 4.3125l-2.5625 0l0 -12.140625l3.359375 0q1.171875 0 2.015625 0.265625q0.859375 0.265625 1.40625 0.75q0.5625 0.484375 0.828125 1.1875q0.265625 0.703125 0.265625 1.59375zm13.912842 8.34375l-0.828125 -2.890625l-4.1875 0l-0.84375 2.890625l-2.59375 0l3.9375 -12.1875l3.15625 0l3.953125 12.1875l-2.59375 0zm-1.4375 -5.046875l-0.765625 -2.65625q-0.0625 -0.15625 -0.15625 -0.484375q-0.09375 -0.34375 -0.21875 -0.75q-0.109375 -0.421875 -0.21875 -0.828125q-0.09375 -0.421875 -0.125 -0.703125q-0.03125 0.171875 -0.09375 0.421875q-0.046875 0.25 -0.125 0.53125q-0.0625 0.28125 -0.140625 0.5625q-0.078125 0.28125 -0.140625 0.53125q-0.0625 0.25 -0.125 0.4375q-0.046875 0.1875 -0.078125 0.28125l-0.765625 2.65625l2.953125 0zm8.339722 -1.375l0.515625 0q1.078125 0 1.625 -0.421875q0.5625 -0.4375 0.5625 -1.421875q0 -0.90625 -0.5 -1.328125q-0.484375 -0.4375 -1.546875 -0.4375l-0.65625 0l0 3.609375zm5.3125 -1.921875q0 0.796875 -0.25 1.53125q-0.234375 0.71875 -0.796875 1.28125q-0.546875 0.546875 -1.453125 0.890625q-0.890625 0.328125 -2.21875 0.328125l-0.59375 0l0 4.3125l-2.5625 0l0 -12.140625l3.359375 0q1.171875 0 2.015625 0.265625q0.859375 0.265625 1.40625 0.75q0.5625 0.484375 0.828125 1.1875q0.265625 0.703125 0.265625 1.59375zm7.020996 8.34375l-5.515625 0l0 -1.46875l1.484375 -0.671875l0 -7.859375l-1.484375 -0.671875l0 -1.46875l5.515625 0l0 1.46875l-1.46875 0.671875l0 7.859375l1.46875 0.671875l0 1.46875z" fill-rule="nonzero"></path><path fill="#cfe2f3" d="m579.5722 13.0l139.32806 0l0 112.0l-139.32806 0z" fill-rule="nonzero"></path><path stroke="#9fc5e8" stroke-width="1.0" stroke-linejoin="round" stroke-linecap="butt" d="m579.5722 13.0l139.32806 0l0 112.0l-139.32806 0z" fill-rule="nonzero"></path><path fill="#000000" d="m616.5628 32.4525q0 1.53125 -0.421875 2.703125q-0.421875 1.15625 -1.21875 1.9375q-0.796875 0.765625 -1.953125 1.15625q-1.140625 0.390625 -2.609375 0.390625l-3.1875 0l0 -12.140625l3.546875 0q1.34375 0 2.40625 0.390625q1.078125 0.375 1.84375 1.125q0.765625 0.75 1.171875 1.875q0.421875 1.109375 0.421875 2.5625zm-2.609375 0.0625q0 -1.0 -0.203125 -1.734375q-0.203125 -0.734375 -0.59375 -1.21875q-0.390625 -0.484375 -0.953125 -0.71875q-0.546875 -0.234375 -1.28125 -0.234375l-1.1875 0l0 7.90625l0.953125 0q1.625 0 2.4375 -1.0q0.828125 -1.0 0.828125 -3.0zm10.539307 6.125l-0.5 -1.265625l-0.0625 0q-0.28125 0.375 -0.5625 0.65625q-0.265625 0.265625 -0.59375 0.4375q-0.3125 0.171875 -0.71875 0.25q-0.40625 0.09375 -0.9375 0.09375q-0.5625 0 -1.046875 -0.171875q-0.484375 -0.1875 -0.84375 -0.546875q-0.34375 -0.359375 -0.546875 -0.90625q-0.1875 -0.5625 -0.1875 -1.3125q0 -1.484375 0.9375 -2.1875q0.953125 -0.703125 2.828125 -0.78125l1.484375 -0.046875l0 -0.6875q0 -0.578125 -0.34375 -0.84375q-0.328125 -0.28125 -0.921875 -0.28125q-0.59375 0 -1.171875 0.171875q-0.5625 0.171875 -1.125 0.46875l-0.828125 -1.6875q0.703125 -0.375 1.546875 -0.59375q0.84375 -0.234375 1.765625 -0.234375q1.734375 0 2.65625 0.8125q0.9375 0.8125 0.9375 2.46875l0 6.1875l-1.765625 0zm-0.75 -4.296875l-0.84375 0.03125q-0.5 0.015625 -0.859375 0.140625q-0.34375 0.109375 -0.5625 0.3125q-0.203125 0.1875 -0.296875 0.453125q-0.09375 0.265625 -0.09375 0.609375q0 0.578125 0.28125 0.828125q0.28125 0.234375 0.734375 0.234375q0.359375 0 0.65625 -0.109375q0.296875 -0.125 0.515625 -0.359375q0.21875 -0.25 0.34375 -0.59375q0.125 -0.34375 0.125 -0.78125l0 -0.765625zm9.075134 2.453125q0.375 0 0.703125 -0.078125q0.34375 -0.09375 0.6875 -0.21875l0 1.890625q-0.34375 0.171875 -0.875 0.296875q-0.53125 0.125 -1.15625 0.125q-0.59375 0 -1.125 -0.140625q-0.515625 -0.140625 -0.90625 -0.5q-0.375 -0.359375 -0.59375 -0.953125q-0.21875 -0.59375 -0.21875 -1.484375l0 -4.46875l-1.21875 0l0 -1.078125l1.390625 -0.84375l0.734375 -1.953125l1.625 0l0 1.96875l2.25 0l0 1.90625l-2.25 0l0 4.46875q0 0.546875 0.265625 0.8125q0.265625 0.25 0.6875 0.25zm8.799927 1.84375l-0.5 -1.265625l-0.0625 0q-0.28125 0.375 -0.5625 0.65625q-0.265625 0.265625 -0.59375 0.4375q-0.3125 0.171875 -0.71875 0.25q-0.40625 0.09375 -0.9375 0.09375q-0.5625 0 -1.046875 -0.171875q-0.484375 -0.1875 -0.84375 -0.546875q-0.34375 -0.359375 -0.546875 -0.90625q-0.1875 -0.5625 -0.1875 -1.3125q0 -1.484375 0.9375 -2.1875q0.953125 -0.703125 2.828125 -0.78125l1.484375 -0.046875l0 -0.6875q0 -0.578125 -0.34375 -0.84375q-0.328125 -0.28125 -0.921875 -0.28125q-0.59375 0 -1.171875 0.171875q-0.5625 0.171875 -1.125 0.46875l-0.828125 -1.6875q0.703125 -0.375 1.546875 -0.59375q0.84375 -0.234375 1.765625 -0.234375q1.734375 0 2.65625 0.8125q0.9375 0.8125 0.9375 2.46875l0 6.1875l-1.765625 0zm-0.75 -4.296875l-0.84375 0.03125q-0.5 0.015625 -0.859375 0.140625q-0.34375 0.109375 -0.5625 0.3125q-0.203125 0.1875 -0.296875 0.453125q-0.09375 0.265625 -0.09375 0.609375q0 0.578125 0.28125 0.828125q0.28125 0.234375 0.734375 0.234375q0.359375 0 0.65625 -0.109375q0.296875 -0.125 0.515625 -0.359375q0.21875 -0.25 0.34375 -0.59375q0.125 -0.34375 0.125 -0.78125l0 -0.765625zm15.998291 1.546875q0 0.71875 -0.265625 1.265625q-0.265625 0.546875 -0.765625 0.921875q-0.484375 0.359375 -1.1875 0.546875q-0.6875 0.1875 -1.546875 0.1875q-0.46875 0 -0.859375 -0.03125q-0.390625 -0.03125 -0.734375 -0.109375q-0.34375 -0.0625 -0.671875 -0.15625q-0.328125 -0.09375 -0.65625 -0.25l0 -2.09375q0.34375 0.171875 0.734375 0.3125q0.390625 0.140625 0.765625 0.25q0.390625 0.109375 0.75 0.171875q0.359375 0.046875 0.671875 0.046875q0.328125 0 0.5625 -0.0625q0.25 -0.0625 0.40625 -0.171875q0.15625 -0.109375 0.21875 -0.265625q0.078125 -0.15625 0.078125 -0.328125q0 -0.171875 -0.0625 -0.3125q-0.046875 -0.140625 -0.234375 -0.28125q-0.1875 -0.15625 -0.5625 -0.34375q-0.375 -0.203125 -1.0 -0.484375q-0.59375 -0.28125 -1.046875 -0.546875q-0.4375 -0.265625 -0.734375 -0.59375q-0.28125 -0.34375 -0.421875 -0.765625q-0.140625 -0.4375 -0.140625 -1.015625q0 -0.65625 0.25 -1.140625q0.25 -0.484375 0.703125 -0.796875q0.453125 -0.328125 1.09375 -0.484375q0.65625 -0.171875 1.4375 -0.171875q0.828125 0 1.578125 0.1875q0.75 0.1875 1.53125 0.578125l-0.75 1.796875q-0.640625 -0.3125 -1.21875 -0.5q-0.5625 -0.1875 -1.140625 -0.1875q-0.515625 0 -0.75 0.1875q-0.21875 0.171875 -0.21875 0.5q0 0.15625 0.046875 0.296875q0.0625 0.125 0.234375 0.265625q0.1875 0.125 0.5 0.296875q0.3125 0.15625 0.828125 0.390625q0.578125 0.25 1.046875 0.515625q0.484375 0.25 0.8125 0.578125q0.34375 0.3125 0.53125 0.75q0.1875 0.421875 0.1875 1.046875zm5.9121704 0.90625q0.375 0 0.703125 -0.078125q0.34375 -0.09375 0.6875 -0.21875l0 1.890625q-0.34375 0.171875 -0.875 0.296875q-0.53125 0.125 -1.15625 0.125q-0.59375 0 -1.125 -0.140625q-0.515625 -0.140625 -0.90625 -0.5q-0.375 -0.359375 -0.59375 -0.953125q-0.21875 -0.59375 -0.21875 -1.484375l0 -4.46875l-1.21875 0l0 -1.078125l1.390625 -0.84375l0.734375 -1.953125l1.625 0l0 1.96875l2.25 0l0 1.90625l-2.25 0l0 4.46875q0 0.546875 0.265625 0.8125q0.265625 0.25 0.6875 0.25zm5.5186768 -2.8125q0 1.390625 0.390625 2.09375q0.390625 0.6875 1.265625 0.6875q0.875 0 1.265625 -0.703125q0.390625 -0.703125 0.390625 -2.078125q0 -1.390625 -0.390625 -2.0625q-0.390625 -0.6875 -1.28125 -0.6875q-0.875 0 -1.265625 0.6875q-0.375 0.671875 -0.375 2.0625zm5.890625 0q0 1.15625 -0.296875 2.0625q-0.296875 0.890625 -0.84375 1.515625q-0.546875 0.609375 -1.34375 0.9375q-0.796875 0.3125 -1.78125 0.3125q-0.921875 0 -1.703125 -0.3125q-0.765625 -0.328125 -1.328125 -0.9375q-0.546875 -0.625 -0.875 -1.515625q-0.3125 -0.90625 -0.3125 -2.0625q0 -1.15625 0.296875 -2.046875q0.296875 -0.90625 0.84375 -1.515625q0.5625 -0.609375 1.34375 -0.921875q0.796875 -0.3125 1.78125 -0.3125q0.921875 0 1.6875 0.3125q0.78125 0.3125 1.34375 0.921875q0.5625 0.609375 0.875 1.515625q0.3125 0.890625 0.3125 2.046875zm7.225403 -4.796875q0.09375 0 0.21875 0q0.125 0 0.234375 0.015625q0.109375 0.015625 0.203125 0.03125q0.09375 0.015625 0.140625 0.03125l0 2.375q-0.0625 -0.015625 -0.1875 -0.03125q-0.109375 -0.03125 -0.234375 -0.03125q-0.125 -0.015625 -0.25 -0.015625q-0.125 -0.015625 -0.21875 -0.015625q-0.484375 0 -0.90625 0.125q-0.40625 0.125 -0.703125 0.40625q-0.28125 0.28125 -0.453125 0.734375q-0.15625 0.453125 -0.15625 1.109375l0 4.71875l-2.53125 0l0 -9.28125l1.921875 0l0.375 1.390625l0.125 0q0.1875 -0.359375 0.421875 -0.640625q0.234375 -0.296875 0.515625 -0.5q0.296875 -0.203125 0.65625 -0.3125q0.359375 -0.109375 0.828125 -0.109375zm6.4281006 1.796875q-0.671875 0 -1.125 0.484375q-0.4375 0.46875 -0.5 1.484375l3.234375 0q-0.015625 -0.4375 -0.125 -0.78125q-0.09375 -0.359375 -0.296875 -0.625q-0.1875 -0.265625 -0.484375 -0.40625q-0.296875 -0.15625 -0.703125 -0.15625zm0.328125 7.828125q-1.0 0 -1.84375 -0.296875q-0.828125 -0.296875 -1.4375 -0.875q-0.609375 -0.578125 -0.953125 -1.46875q-0.328125 -0.90625 -0.328125 -2.109375q0 -1.21875 0.3125 -2.125q0.3125 -0.921875 0.859375 -1.53125q0.546875 -0.609375 1.328125 -0.90625q0.78125 -0.3125 1.71875 -0.3125q0.921875 0 1.65625 0.28125q0.75 0.265625 1.265625 0.8125q0.53125 0.546875 0.796875 1.328125q0.28125 0.78125 0.28125 1.796875l0 1.21875l-5.65625 0q0.015625 0.53125 0.171875 0.96875q0.15625 0.421875 0.421875 0.71875q0.28125 0.296875 0.671875 0.453125q0.40625 0.15625 0.90625 0.15625q0.421875 0 0.796875 -0.046875q0.375 -0.046875 0.734375 -0.140625q0.359375 -0.09375 0.703125 -0.21875q0.359375 -0.140625 0.71875 -0.328125l0 1.96875q-0.328125 0.171875 -0.671875 0.296875q-0.328125 0.109375 -0.703125 0.1875q-0.375 0.09375 -0.8125 0.125q-0.421875 0.046875 -0.9375 0.046875z" fill-rule="nonzero"></path><path fill="#000000" fill-opacity="0.0" d="m805.0 101.461945l-706.9921 0" fill-rule="nonzero"></path><path stroke="#000000" stroke-width="3.0" stroke-linejoin="round" stroke-linecap="butt" d="m805.0 101.461945l-688.9921 0" fill-rule="evenodd"></path><path fill="#000000" stroke="#000000" stroke-width="3.0" stroke-linecap="butt" d="m116.00787 96.506744l-13.614296 4.9552l13.614296 4.9551926z" fill-rule="evenodd"></path><path fill="#000000" fill-opacity="0.0" d="m103.646255 61.963253l701.3229 0" fill-rule="nonzero"></path><path stroke="#000000" stroke-width="3.0" stroke-linejoin="round" stroke-linecap="butt" d="m103.646255 61.963253l683.3228 0" fill-rule="evenodd"></path><path fill="#000000" stroke="#000000" stroke-width="3.0" stroke-linecap="butt" d="m786.96906 66.91845l13.614319 -4.9551964l-13.614319 -4.9551964z" fill-rule="evenodd"></path><path fill="#fce5cd" d="m805.0 54.35827l0 0c0 -6.9035606 23.728882 -12.5 53.0 -12.5c29.271118 0 53.0 5.5964394 53.0 12.5l0 50.0c0 6.903557 -23.728882 12.5 -53.0 12.5c-29.271118 0 -53.0 -5.596443 -53.0 -12.5z" fill-rule="nonzero"></path><path fill="#000000" fill-opacity="0.0" d="m911.0 54.35827l0 0c0 6.903557 -23.728882 12.5 -53.0 12.5c-29.271118 0 -53.0 -5.596443 -53.0 -12.5" fill-rule="nonzero"></path><path fill="#000000" fill-opacity="0.0" d="m805.0 54.35827l0 0c0 -6.9035606 23.728882 -12.5 53.0 -12.5c29.271118 0 53.0 5.5964394 53.0 12.5l0 50.0c0 6.903557 -23.728882 12.5 -53.0 12.5c-29.271118 0 -53.0 -5.596443 -53.0 -12.5z" fill-rule="nonzero"></path><path stroke="#f9cb9c" stroke-width="1.0" stroke-linejoin="round" stroke-linecap="butt" d="m911.0 54.35827l0 0c0 6.903557 -23.728882 12.5 -53.0 12.5c-29.271118 0 -53.0 -5.596443 -53.0 -12.5" fill-rule="nonzero"></path><path stroke="#f9cb9c" stroke-width="1.0" stroke-linejoin="round" stroke-linecap="butt" d="m805.0 54.35827l0 0c0 -6.9035606 23.728882 -12.5 53.0 -12.5c29.271118 0 53.0 5.5964394 53.0 12.5l0 50.0c0 6.903557 -23.728882 12.5 -53.0 12.5c-29.271118 0 -53.0 -5.596443 -53.0 -12.5z" fill-rule="nonzero"></path><path fill="#000000" d="m857.28564 85.56077q0 1.53125 -0.40625 2.703125q-0.390625 1.15625 -1.15625 1.9375q-0.75 0.765625 -1.859375 1.15625q-1.09375 0.390625 -2.484375 0.390625l-3.03125 0l0 -12.140625l3.375 0q1.265625 0 2.296875 0.390625q1.03125 0.375 1.75 1.125q0.71875 0.75 1.109375 1.875q0.40625 1.109375 0.40625 2.5625zm-1.640625 0.046875q0 -1.203125 -0.28125 -2.078125q-0.265625 -0.890625 -0.796875 -1.46875q-0.515625 -0.578125 -1.28125 -0.84375q-0.765625 -0.28125 -1.734375 -0.28125l-1.65625 0l0 9.484375l1.34375 0q2.1875 0 3.296875 -1.203125q1.109375 -1.21875 1.109375 -3.609375zm4.556946 -6.0l3.3125 0q1.0625 0 1.859375 0.171875q0.8125 0.15625 1.359375 0.515625q0.546875 0.359375 0.8125 0.953125q0.28125 0.578125 0.28125 1.4375q0 0.515625 -0.171875 0.96875q-0.15625 0.4375 -0.46875 0.78125q-0.296875 0.34375 -0.75 0.578125q-0.453125 0.21875 -1.03125 0.296875l0 0.078125q0.578125 0.09375 1.078125 0.28125q0.5 0.1875 0.875 0.515625q0.375 0.328125 0.59375 0.828125q0.21875 0.5 0.21875 1.21875q0 0.828125 -0.28125 1.484375q-0.265625 0.640625 -0.78125 1.09375q-0.5 0.453125 -1.234375 0.703125q-0.734375 0.234375 -1.65625 0.234375l-4.015625 0l0 -12.140625zm1.546875 5.15625l2.015625 0q0.703125 0 1.171875 -0.125q0.46875 -0.125 0.765625 -0.375q0.296875 -0.25 0.421875 -0.609375q0.125 -0.375 0.125 -0.859375q0 -1.0 -0.640625 -1.421875q-0.640625 -0.4375 -2.015625 -0.4375l-1.84375 0l0 3.828125zm0 1.296875l0 4.375l2.203125 0q0.734375 0 1.21875 -0.15625q0.5 -0.171875 0.796875 -0.46875q0.3125 -0.296875 0.4375 -0.71875q0.140625 -0.421875 0.140625 -0.9375q0 -0.453125 -0.140625 -0.84375q-0.140625 -0.390625 -0.453125 -0.671875q-0.3125 -0.28125 -0.828125 -0.421875q-0.515625 -0.15625 -1.28125 -0.15625l-2.09375 0z" fill-rule="nonzero"></path><path fill="#000000" fill-opacity="0.0" d="m718.6483 70.461945l66.2677 0l0 29.984253l-66.2677 0z" fill-rule="nonzero"></path><path fill="#000000" d="m745.3486 91.759445q0 0.765625 -0.28125 1.359375q-0.265625 0.59375 -0.765625 1.015625q-0.5 0.40625 -1.21875 0.625q-0.71875 0.21875 -1.609375 0.21875q-0.875 0 -1.625 -0.140625q-0.75 -0.140625 -1.265625 -0.40625l0 -1.390625q0.265625 0.125 0.609375 0.25q0.34375 0.125 0.71875 0.21875q0.375 0.09375 0.765625 0.15625q0.40625 0.046875 0.796875 0.046875q1.25 0 1.84375 -0.46875q0.59375 -0.46875 0.59375 -1.34375q0 -0.421875 -0.109375 -0.734375q-0.109375 -0.3125 -0.40625 -0.5625q-0.28125 -0.265625 -0.765625 -0.515625q-0.46875 -0.25 -1.1875 -0.53125q-0.703125 -0.28125 -1.21875 -0.59375q-0.5 -0.328125 -0.84375 -0.734375q-0.328125 -0.40625 -0.484375 -0.921875q-0.15625 -0.515625 -0.15625 -1.171875q0 -0.6875 0.25 -1.21875q0.25 -0.546875 0.703125 -0.921875q0.453125 -0.375 1.078125 -0.5625q0.625 -0.203125 1.390625 -0.203125q0.921875 0 1.65625 0.1875q0.75 0.171875 1.328125 0.4375l-0.515625 1.21875q-0.515625 -0.21875 -1.15625 -0.390625q-0.640625 -0.171875 -1.328125 -0.171875q-0.953125 0 -1.484375 0.453125q-0.515625 0.4375 -0.515625 1.1875q0 0.4375 0.109375 0.765625q0.125 0.328125 0.390625 0.59375q0.28125 0.25 0.71875 0.484375q0.453125 0.234375 1.109375 0.484375q0.71875 0.28125 1.25 0.578125q0.53125 0.296875 0.890625 0.671875q0.359375 0.375 0.546875 0.875q0.1875 0.484375 0.1875 1.15625zm11.6171875 -2.671875q0 1.03125 -0.203125 1.921875q-0.1875 0.875 -0.5625 1.578125q-0.359375 0.703125 -0.921875 1.21875q-0.546875 0.515625 -1.28125 0.8125q0.34375 0.75 0.875 1.296875q0.53125 0.5625 1.234375 1.03125l-0.9375 1.109375q-0.8125 -0.5625 -1.484375 -1.34375q-0.671875 -0.765625 -1.078125 -1.765625q-0.125 0.015625 -0.296875 0.015625q-0.15625 0.015625 -0.296875 0.015625q-1.265625 0 -2.203125 -0.421875q-0.9375 -0.421875 -1.546875 -1.1875q-0.609375 -0.78125 -0.90625 -1.875q-0.296875 -1.09375 -0.296875 -2.421875q0 -1.328125 0.296875 -2.40625q0.296875 -1.078125 0.90625 -1.84375q0.625 -0.765625 1.5625 -1.1875q0.9375 -0.421875 2.203125 -0.421875q1.21875 0 2.125 0.421875q0.921875 0.421875 1.546875 1.1875q0.625 0.765625 0.9375 1.859375q0.328125 1.078125 0.328125 2.40625zm-8.375 0q0 1.078125 0.203125 1.9375q0.203125 0.84375 0.625 1.453125q0.421875 0.59375 1.0625 0.90625q0.640625 0.3125 1.53125 0.3125q0.890625 0 1.53125 -0.3125q0.65625 -0.3125 1.0625 -0.90625q0.421875 -0.609375 0.609375 -1.453125q0.203125 -0.859375 0.203125 -1.9375q0 -1.078125 -0.203125 -1.921875q-0.1875 -0.859375 -0.609375 -1.4375q-0.40625 -0.59375 -1.046875 -0.90625q-0.640625 -0.328125 -1.53125 -0.328125q-0.890625 0 -1.546875 0.328125q-0.640625 0.3125 -1.0625 0.90625q-0.421875 0.578125 -0.625 1.4375q-0.203125 0.84375 -0.203125 1.921875zm10.90625 5.734375l0 -11.421875l1.453125 0l0 10.125l4.46875 0l0 1.296875l-5.921875 0z" fill-rule="nonzero"></path><path fill="#000000" fill-opacity="0.0" d="m514.65094 70.461945l66.2677 0l0 29.984253l-66.2677 0z" fill-rule="nonzero"></path><path fill="#000000" d="m543.75745 88.790695l3.78125 0l0 5.59375q-0.421875 0.140625 -0.859375 0.25q-0.4375 0.109375 -0.90625 0.1875q-0.453125 0.078125 -0.96875 0.109375q-0.5 0.046875 -1.09375 0.046875q-1.21875 0 -2.171875 -0.40625q-0.9375 -0.421875 -1.59375 -1.171875q-0.640625 -0.765625 -0.984375 -1.859375q-0.328125 -1.09375 -0.328125 -2.453125q0 -1.34375 0.359375 -2.421875q0.375 -1.09375 1.078125 -1.84375q0.71875 -0.765625 1.765625 -1.171875q1.046875 -0.421875 2.375 -0.421875q0.875 0 1.671875 0.171875q0.796875 0.171875 1.484375 0.5l-0.5625 1.265625q-0.28125 -0.125 -0.609375 -0.234375q-0.328125 -0.125 -0.671875 -0.21875q-0.34375 -0.09375 -0.703125 -0.140625q-0.359375 -0.0625 -0.71875 -0.0625q-0.953125 0 -1.6875 0.328125q-0.734375 0.3125 -1.234375 0.90625q-0.5 0.59375 -0.765625 1.453125q-0.25 0.84375 -0.25 1.90625q0 1.015625 0.21875 1.859375q0.21875 0.84375 0.6875 1.453125q0.46875 0.609375 1.203125 0.953125q0.75 0.328125 1.796875 0.328125q0.34375 0 0.625 -0.015625q0.28125 -0.015625 0.515625 -0.046875q0.25 -0.03125 0.46875 -0.078125q0.21875 -0.046875 0.421875 -0.078125l0 -3.40625l-2.34375 0l0 -1.28125zm13.2890625 1.71875q0 1.078125 -0.265625 1.90625q-0.265625 0.828125 -0.75 1.40625q-0.484375 0.5625 -1.1875 0.859375q-0.6875 0.296875 -1.5625 0.296875q-0.796875 0 -1.484375 -0.296875q-0.671875 -0.296875 -1.171875 -0.859375q-0.5 -0.578125 -0.78125 -1.40625q-0.265625 -0.828125 -0.265625 -1.90625q0 -1.0625 0.25 -1.875q0.265625 -0.828125 0.75 -1.390625q0.484375 -0.578125 1.1875 -0.859375q0.703125 -0.296875 1.5625 -0.296875q0.8125 0 1.484375 0.296875q0.6875 0.28125 1.171875 0.859375q0.5 0.5625 0.78125 1.390625q0.28125 0.8125 0.28125 1.875zm-6.0 0q0 1.640625 0.53125 2.46875q0.53125 0.8125 1.734375 0.8125q1.203125 0 1.734375 -0.8125q0.53125 -0.828125 0.53125 -2.46875q0 -1.625 -0.546875 -2.4375q-0.53125 -0.8125 -1.734375 -0.8125q-1.203125 0 -1.734375 0.8125q-0.515625 0.8125 -0.515625 2.4375z" fill-rule="nonzero"></path><path fill="#000000" fill-opacity="0.0" d="m310.65353 70.461945l66.26773 0l0 29.984253l-66.26773 0z" fill-rule="nonzero"></path><path fill="#000000" d="m325.4632 97.86882q-0.390625 0 -0.6875 -0.0625q-0.296875 -0.046875 -0.515625 -0.125l0 -1.25q0.265625 0.0625 0.578125 0.109375q0.296875 0.046875 0.640625 0.046875q0.296875 0 0.59375 -0.078125q0.296875 -0.078125 0.53125 -0.28125q0.234375 -0.1875 0.375 -0.53125q0.15625 -0.34375 0.15625 -0.875l0 -11.421875l1.46875 0l0 11.265625q0 0.828125 -0.234375 1.421875q-0.234375 0.609375 -0.640625 1.0q-0.40625 0.390625 -0.984375 0.578125q-0.578125 0.203125 -1.28125 0.203125zm12.1484375 -6.109375q0 0.765625 -0.28125 1.359375q-0.265625 0.59375 -0.765625 1.015625q-0.5 0.40625 -1.21875 0.625q-0.71875 0.21875 -1.609375 0.21875q-0.875 0 -1.625 -0.140625q-0.75 -0.140625 -1.265625 -0.40625l0 -1.390625q0.265625 0.125 0.609375 0.25q0.34375 0.125 0.71875 0.21875q0.375 0.09375 0.765625 0.15625q0.40625 0.046875 0.796875 0.046875q1.25 0 1.84375 -0.46875q0.59375 -0.46875 0.59375 -1.34375q0 -0.421875 -0.109375 -0.734375q-0.109375 -0.3125 -0.40625 -0.5625q-0.28125 -0.265625 -0.765625 -0.515625q-0.46875 -0.25 -1.1875 -0.53125q-0.703125 -0.28125 -1.21875 -0.59375q-0.5 -0.328125 -0.84375 -0.734375q-0.328125 -0.40625 -0.484375 -0.921875q-0.15625 -0.515625 -0.15625 -1.171875q0 -0.6875 0.25 -1.21875q0.25 -0.546875 0.703125 -0.921875q0.453125 -0.375 1.078125 -0.5625q0.625 -0.203125 1.390625 -0.203125q0.921875 0 1.65625 0.1875q0.75 0.171875 1.328125 0.4375l-0.515625 1.21875q-0.515625 -0.21875 -1.15625 -0.390625q-0.640625 -0.171875 -1.328125 -0.171875q-0.953125 0 -1.484375 0.453125q-0.515625 0.4375 -0.515625 1.1875q0 0.4375 0.109375 0.765625q0.125 0.328125 0.390625 0.59375q0.28125 0.25 0.71875 0.484375q0.453125 0.234375 1.109375 0.484375q0.71875 0.28125 1.25 0.578125q0.53125 0.296875 0.890625 0.671875q0.359375 0.375 0.546875 0.875q0.1875 0.484375 0.1875 1.15625zm11.6171875 -2.671875q0 1.328125 -0.328125 2.421875q-0.3125 1.078125 -0.9375 1.859375q-0.625 0.765625 -1.546875 1.1875q-0.921875 0.421875 -2.140625 0.421875q-1.265625 0 -2.203125 -0.421875q-0.9375 -0.421875 -1.546875 -1.1875q-0.609375 -0.78125 -0.90625 -1.875q-0.296875 -1.09375 -0.296875 -2.421875q0 -1.328125 0.296875 -2.40625q0.296875 -1.078125 0.90625 -1.84375q0.625 -0.765625 1.5625 -1.1875q0.9375 -0.421875 2.203125 -0.421875q1.21875 0 2.125 0.421875q0.921875 0.421875 1.546875 1.1875q0.625 0.765625 0.9375 1.859375q0.328125 1.078125 0.328125 2.40625zm-8.375 0q0 1.078125 0.203125 1.9375q0.203125 0.84375 0.625 1.453125q0.421875 0.59375 1.0625 0.90625q0.640625 0.3125 1.53125 0.3125q0.890625 0 1.53125 -0.3125q0.65625 -0.3125 1.0625 -0.90625q0.421875 -0.609375 0.609375 -1.453125q0.203125 -0.859375 0.203125 -1.9375q0 -1.078125 -0.203125 -1.921875q-0.1875 -0.859375 -0.609375 -1.4375q-0.40625 -0.59375 -1.046875 -0.90625q-0.640625 -0.328125 -1.53125 -0.328125q-0.890625 0 -1.546875 0.328125q-0.640625 0.3125 -1.0625 0.90625q-0.421875 0.578125 -0.625 1.4375q-0.203125 0.84375 -0.203125 1.921875zm19.46875 5.734375l-1.671875 0l-5.625 -9.453125l-0.0625 0q0.046875 0.59375 0.078125 1.1875q0.03125 0.515625 0.046875 1.078125q0.03125 0.546875 0.03125 0.984375l0 6.203125l-1.34375 0l0 -11.421875l1.65625 0l5.59375 9.40625l0.0625 0q-0.03125 -0.59375 -0.0625 -1.171875q0 -0.25 -0.015625 -0.515625q-0.015625 -0.265625 -0.03125 -0.515625q0 -0.265625 -0.015625 -0.5q0 -0.25 0 -0.453125l0 -6.25l1.359375 0l0 11.421875z" fill-rule="nonzero"></path><path fill="#000000" fill-opacity="0.0" d="m-0.17322835 39.85827l105.984245 0l0 39.716537l-105.984245 0z" fill-rule="nonzero"></path><path fill="#000000" d="m37.199696 60.482643l0 5.015625l-1.546875 0l0 -12.140625l2.953125 0q2.203125 0 3.25 0.859375q1.0625 0.859375 1.0625 2.59375q0 0.71875 -0.203125 1.265625q-0.203125 0.53125 -0.546875 0.921875q-0.328125 0.375 -0.765625 0.640625q-0.421875 0.25 -0.875 0.421875l3.296875 5.4375l-1.8125 0l-2.921875 -5.015625l-1.890625 0zm0 -1.3125l1.359375 0q0.734375 0 1.25 -0.140625q0.53125 -0.140625 0.859375 -0.421875q0.34375 -0.296875 0.5 -0.71875q0.15625 -0.4375 0.15625 -1.0q0 -0.609375 -0.171875 -1.015625q-0.171875 -0.421875 -0.515625 -0.6875q-0.34375 -0.265625 -0.875 -0.375q-0.515625 -0.125 -1.234375 -0.125l-1.328125 0l0 4.484375zm12.064636 6.5q-0.90625 0 -1.671875 -0.3125q-0.75 -0.3125 -1.296875 -0.890625q-0.546875 -0.59375 -0.84375 -1.46875q-0.296875 -0.875 -0.296875 -1.984375q0 -1.140625 0.265625 -2.015625q0.28125 -0.890625 0.78125 -1.515625q0.5 -0.625 1.1875 -0.9375q0.703125 -0.328125 1.53125 -0.328125q0.828125 0 1.484375 0.296875q0.65625 0.296875 1.109375 0.828125q0.453125 0.53125 0.703125 1.28125q0.25 0.75 0.25 1.671875l0 0.9375l-5.75 0q0.046875 1.59375 0.671875 2.359375q0.640625 0.75 1.890625 0.75q0.421875 0 0.78125 -0.03125q0.359375 -0.046875 0.6875 -0.125q0.34375 -0.078125 0.65625 -0.203125q0.328125 -0.125 0.65625 -0.265625l0 1.34375q-0.34375 0.15625 -0.671875 0.28125q-0.3125 0.109375 -0.65625 0.171875q-0.328125 0.078125 -0.6875 0.109375q-0.359375 0.046875 -0.78125 0.046875zm-0.375 -8.203125q-0.9375 0 -1.5 0.65625q-0.546875 0.640625 -0.640625 1.875l4.078125 0q0 -0.5625 -0.109375 -1.03125q-0.109375 -0.46875 -0.34375 -0.796875q-0.234375 -0.328125 -0.609375 -0.515625q-0.359375 -0.1875 -0.875 -0.1875zm9.288879 6.9375q0.640625 0 1.0625 -0.1875q0.4375 -0.1875 0.703125 -0.578125q0.28125 -0.390625 0.40625 -0.96875q0.125 -0.59375 0.140625 -1.375l0 -0.34375q0 -0.828125 -0.109375 -1.484375q-0.109375 -0.65625 -0.375 -1.09375q-0.265625 -0.453125 -0.71875 -0.671875q-0.453125 -0.234375 -1.125 -0.234375q-1.125 0 -1.65625 0.90625q-0.515625 0.90625 -0.515625 2.59375q0 1.734375 0.515625 2.59375q0.53125 0.84375 1.671875 0.84375zm-0.28125 1.265625q-0.78125 0 -1.421875 -0.296875q-0.640625 -0.3125 -1.09375 -0.90625q-0.453125 -0.59375 -0.703125 -1.46875q-0.25 -0.875 -0.25 -2.046875q0 -1.171875 0.25 -2.046875q0.25 -0.890625 0.703125 -1.484375q0.453125 -0.59375 1.09375 -0.890625q0.640625 -0.3125 1.421875 -0.3125q0.484375 0 0.875 0.109375q0.40625 0.109375 0.71875 0.296875q0.3125 0.1875 0.5625 0.453125q0.25 0.25 0.4375 0.53125l0.078125 0l0.21875 -1.21875l1.21875 0l0 13.1875l-1.515625 0l0 -3.890625q0 -0.15625 0.015625 -0.390625q0.03125 -0.25 0.046875 -0.46875q0.015625 -0.265625 0.046875 -0.546875l-0.109375 0q-0.171875 0.28125 -0.421875 0.53125q-0.25 0.25 -0.578125 0.453125q-0.3125 0.1875 -0.71875 0.296875q-0.390625 0.109375 -0.875 0.109375zm13.090702 -0.171875l-0.21875 -1.21875l-0.078125 0q-0.21875 0.359375 -0.5 0.625q-0.28125 0.25 -0.625 0.421875q-0.34375 0.171875 -0.734375 0.25q-0.375 0.09375 -0.765625 0.09375q-0.765625 0 -1.34375 -0.1875q-0.5625 -0.203125 -0.953125 -0.609375q-0.375 -0.40625 -0.578125 -1.03125q-0.1875 -0.640625 -0.1875 -1.5l0 -5.953125l1.515625 0l0 5.859375q0 1.078125 0.4375 1.625q0.4375 0.53125 1.359375 0.53125q0.671875 0 1.125 -0.203125q0.46875 -0.21875 0.734375 -0.640625q0.28125 -0.421875 0.40625 -1.03125q0.125 -0.625 0.125 -1.421875l0 -4.71875l1.5 0l0 9.109375l-1.21875 0zm7.907089 0.171875q-0.90625 0 -1.671875 -0.3125q-0.75 -0.3125 -1.296875 -0.890625q-0.546875 -0.59375 -0.84375 -1.46875q-0.296875 -0.875 -0.296875 -1.984375q0 -1.140625 0.265625 -2.015625q0.28125 -0.890625 0.78125 -1.515625q0.5 -0.625 1.1875 -0.9375q0.703125 -0.328125 1.53125 -0.328125q0.828125 0 1.484375 0.296875q0.65625 0.296875 1.109375 0.828125q0.453125 0.53125 0.703125 1.28125q0.25 0.75 0.25 1.671875l0 0.9375l-5.75 0q0.046875 1.59375 0.671875 2.359375q0.640625 0.75 1.890625 0.75q0.421875 0 0.78125 -0.03125q0.359375 -0.046875 0.6875 -0.125q0.34375 -0.078125 0.65625 -0.203125q0.328125 -0.125 0.65625 -0.265625l0 1.34375q-0.34375 0.15625 -0.671875 0.28125q-0.3125 0.109375 -0.65625 0.171875q-0.328125 0.078125 -0.6875 0.109375q-0.359375 0.046875 -0.78125 0.046875zm-0.375 -8.203125q-0.9375 0 -1.5 0.65625q-0.546875 0.640625 -0.640625 1.875l4.078125 0q0 -0.5625 -0.109375 -1.03125q-0.109375 -0.46875 -0.34375 -0.796875q-0.234375 -0.328125 -0.609375 -0.515625q-0.359375 -0.1875 -0.875 -0.1875zm11.492004 5.53125q0 0.671875 -0.234375 1.171875q-0.234375 0.484375 -0.6875 0.828125q-0.453125 0.328125 -1.09375 0.5q-0.640625 0.171875 -1.4375 0.171875q-0.90625 0 -1.5625 -0.15625q-0.640625 -0.140625 -1.125 -0.421875l0 -1.375q0.25 0.125 0.5625 0.265625q0.328125 0.125 0.671875 0.21875q0.34375 0.09375 0.71875 0.15625q0.375 0.0625 0.734375 0.0625q0.53125 0 0.90625 -0.078125q0.390625 -0.09375 0.625 -0.265625q0.234375 -0.171875 0.34375 -0.40625q0.109375 -0.25 0.109375 -0.546875q0 -0.265625 -0.09375 -0.46875q-0.078125 -0.21875 -0.296875 -0.421875q-0.21875 -0.203125 -0.609375 -0.40625q-0.375 -0.203125 -0.96875 -0.46875q-0.59375 -0.25 -1.078125 -0.5q-0.46875 -0.25 -0.8125 -0.546875q-0.328125 -0.3125 -0.515625 -0.71875q-0.171875 -0.40625 -0.171875 -0.953125q0 -0.59375 0.234375 -1.03125q0.234375 -0.453125 0.640625 -0.765625q0.421875 -0.3125 1.0 -0.46875q0.578125 -0.15625 1.296875 -0.15625q0.796875 0 1.46875 0.171875q0.671875 0.171875 1.265625 0.453125l-0.515625 1.234375q-0.546875 -0.25 -1.125 -0.421875q-0.5625 -0.1875 -1.140625 -0.1875q-0.859375 0 -1.265625 0.28125q-0.40625 0.28125 -0.40625 0.796875q0 0.28125 0.09375 0.5q0.109375 0.21875 0.328125 0.40625q0.234375 0.1875 0.625 0.390625q0.390625 0.1875 0.96875 0.4375q0.609375 0.25 1.078125 0.5q0.46875 0.25 0.796875 0.5625q0.328125 0.296875 0.5 0.703125q0.171875 0.390625 0.171875 0.953125zm5.1304626 1.421875q0.140625 0 0.328125 -0.015625q0.1875 -0.015625 0.359375 -0.03125q0.1875 -0.03125 0.328125 -0.0625q0.140625 -0.03125 0.21875 -0.0625l0 1.15625q-0.109375 0.046875 -0.28125 0.09375q-0.15625 0.046875 -0.359375 0.078125q-0.203125 0.046875 -0.421875 0.0625q-0.203125 0.03125 -0.421875 0.03125q-0.515625 0 -0.953125 -0.140625q-0.4375 -0.125 -0.765625 -0.453125q-0.3125 -0.328125 -0.5 -0.875q-0.171875 -0.546875 -0.171875 -1.390625l0 -5.296875l-1.28125 0l0 -0.671875l1.28125 -0.640625l0.640625 -1.90625l0.875 0l0 2.09375l2.296875 0l0 1.125l-2.296875 0l0 5.296875q0 0.796875 0.265625 1.203125q0.265625 0.40625 0.859375 0.40625z" fill-rule="nonzero"></path><path fill="#000000" fill-opacity="0.0" d="m-0.17322835 79.603676l105.984245 0l0 39.716537l-105.984245 0z" fill-rule="nonzero"></path><path fill="#000000" d="m25.252766 100.22805l0 5.015625l-1.546875 0l0 -12.140625l2.953125 0q2.203125 0 3.25 0.859375q1.0625 0.859375 1.0625 2.59375q0 0.71875 -0.203125 1.265625q-0.203125 0.53125 -0.546875 0.921875q-0.328125 0.375 -0.765625 0.640625q-0.421875 0.25 -0.875 0.421875l3.296875 5.4375l-1.8125 0l-2.921875 -5.015625l-1.890625 0zm0 -1.3125l1.359375 0q0.734375 0 1.25 -0.140625q0.53125 -0.140625 0.859375 -0.421875q0.34375 -0.296875 0.5 -0.71875q0.15625 -0.4375 0.15625 -1.0q0 -0.609375 -0.171875 -1.015625q-0.171875 -0.421875 -0.515625 -0.6875q-0.34375 -0.265625 -0.875 -0.375q-0.515625 -0.125 -1.234375 -0.125l-1.328125 0l0 4.484375zm12.064636 6.5q-0.90625 0 -1.671875 -0.3125q-0.75 -0.3125 -1.296875 -0.890625q-0.546875 -0.59375 -0.84375 -1.46875q-0.296875 -0.875 -0.296875 -1.984375q0 -1.140625 0.265625 -2.015625q0.28125 -0.890625 0.78125 -1.515625q0.5 -0.625 1.1875 -0.9375q0.703125 -0.328125 1.53125 -0.328125q0.828125 0 1.484375 0.296875q0.65625 0.296875 1.109375 0.828125q0.453125 0.53125 0.703125 1.28125q0.25 0.75 0.25 1.671875l0 0.9375l-5.75 0q0.046875 1.59375 0.671875 2.359375q0.640625 0.75 1.890625 0.75q0.421875 0 0.78125 -0.03125q0.359375 -0.046875 0.6875 -0.125q0.34375 -0.078125 0.65625 -0.203125q0.328125 -0.125 0.65625 -0.265625l0 1.34375q-0.34375 0.15625 -0.671875 0.28125q-0.3125 0.109375 -0.65625 0.171875q-0.328125 0.078125 -0.6875 0.109375q-0.359375 0.046875 -0.78125 0.046875zm-0.375 -8.203125q-0.9375 0 -1.5 0.65625q-0.546875 0.640625 -0.640625 1.875l4.078125 0q0 -0.5625 -0.109375 -1.03125q-0.109375 -0.46875 -0.34375 -0.796875q-0.234375 -0.328125 -0.609375 -0.515625q-0.359375 -0.1875 -0.875 -0.1875zm11.492004 5.53125q0 0.671875 -0.234375 1.171875q-0.234375 0.484375 -0.6875 0.828125q-0.453125 0.328125 -1.09375 0.5q-0.640625 0.171875 -1.4375 0.171875q-0.90625 0 -1.5625 -0.15625q-0.640625 -0.140625 -1.125 -0.421875l0 -1.375q0.25 0.125 0.5625 0.265625q0.328125 0.125 0.671875 0.21875q0.34375 0.09375 0.71875 0.15625q0.375 0.0625 0.734375 0.0625q0.53125 0 0.90625 -0.078125q0.390625 -0.09375 0.625 -0.265625q0.234375 -0.171875 0.34375 -0.40625q0.109375 -0.25 0.109375 -0.546875q0 -0.265625 -0.09375 -0.46875q-0.078125 -0.21875 -0.296875 -0.421875q-0.21875 -0.203125 -0.609375 -0.40625q-0.375 -0.203125 -0.96875 -0.46875q-0.59375 -0.25 -1.078125 -0.5q-0.46875 -0.25 -0.8125 -0.546875q-0.328125 -0.3125 -0.515625 -0.71875q-0.171875 -0.40625 -0.171875 -0.953125q0 -0.59375 0.234375 -1.03125q0.234375 -0.453125 0.640625 -0.765625q0.421875 -0.3125 1.0 -0.46875q0.578125 -0.15625 1.296875 -0.15625q0.796875 0 1.46875 0.171875q0.671875 0.171875 1.265625 0.453125l-0.515625 1.234375q-0.546875 -0.25 -1.125 -0.421875q-0.5625 -0.1875 -1.140625 -0.1875q-0.859375 0 -1.265625 0.28125q-0.40625 0.28125 -0.40625 0.796875q0 0.28125 0.09375 0.5q0.109375 0.21875 0.328125 0.40625q0.234375 0.1875 0.625 0.390625q0.390625 0.1875 0.96875 0.4375q0.609375 0.25 1.078125 0.5q0.46875 0.25 0.796875 0.5625q0.328125 0.296875 0.5 0.703125q0.171875 0.390625 0.171875 0.953125zm6.4898376 2.671875q-0.484375 0 -0.890625 -0.109375q-0.390625 -0.109375 -0.71875 -0.28125q-0.3125 -0.1875 -0.5625 -0.421875q-0.25 -0.25 -0.4375 -0.515625l-0.09375 0q0.015625 0.28125 0.046875 0.546875q0.015625 0.203125 0.03125 0.4375q0.015625 0.234375 0.015625 0.359375l0 3.890625l-1.515625 0l0 -13.1875l1.234375 0l0.21875 1.21875l0.0625 0q0.1875 -0.28125 0.421875 -0.53125q0.25 -0.265625 0.5625 -0.453125q0.328125 -0.1875 0.71875 -0.296875q0.40625 -0.109375 0.90625 -0.109375q0.78125 0 1.421875 0.296875q0.640625 0.296875 1.09375 0.890625q0.453125 0.59375 0.6875 1.484375q0.25 0.875 0.25 2.03125q0 1.171875 -0.25 2.0625q-0.234375 0.875 -0.6875 1.484375q-0.453125 0.59375 -1.09375 0.90625q-0.640625 0.296875 -1.421875 0.296875zm-0.296875 -8.203125q-0.625 0 -1.0625 0.203125q-0.4375 0.1875 -0.703125 0.578125q-0.265625 0.390625 -0.40625 0.96875q-0.125 0.578125 -0.140625 1.359375l0 0.34375q0 0.84375 0.109375 1.5q0.109375 0.640625 0.375 1.09375q0.28125 0.4375 0.71875 0.671875q0.453125 0.21875 1.125 0.21875q1.125 0 1.65625 -0.890625q0.53125 -0.90625 0.53125 -2.609375q0 -1.71875 -0.53125 -2.578125q-0.53125 -0.859375 -1.671875 -0.859375zm13.762577 3.453125q0 1.140625 -0.28125 2.03125q-0.28125 0.875 -0.796875 1.484375q-0.515625 0.59375 -1.265625 0.921875q-0.734375 0.3125 -1.65625 0.3125q-0.8437538 0 -1.5781288 -0.3125q-0.71875 -0.328125 -1.25 -0.921875q-0.515625 -0.609375 -0.8125 -1.484375q-0.296875 -0.890625 -0.296875 -2.03125q0 -1.125 0.28125 -2.0q0.28125 -0.875 0.796875 -1.46875q0.515625 -0.609375 1.25 -0.921875q0.75 -0.3125 1.6718788 -0.3125q0.84375 0 1.5625 0.3125q0.734375 0.3125 1.25 0.921875q0.53125 0.59375 0.828125 1.46875q0.296875 0.875 0.296875 2.0zm-6.375004 0q0 1.734375 0.5625 2.609375q0.578125 0.875 1.8593788 0.875q1.265625 0 1.828125 -0.875q0.5625 -0.875 0.5625 -2.609375q0 -1.734375 -0.578125 -2.59375q-0.5625 -0.859375 -1.84375 -0.859375q-1.2656288 0 -1.8281288 0.859375q-0.5625 0.859375 -0.5625 2.59375zm14.641529 4.578125l0 -5.875q0 -1.078125 -0.4375 -1.609375q-0.4375 -0.546875 -1.359375 -0.546875q-0.671875 0 -1.140625 0.21875q-0.453125 0.21875 -0.734375 0.640625q-0.265625 0.421875 -0.390625 1.046875q-0.125 0.609375 -0.125 1.40625l0 4.71875l-1.515625 0l0 -9.109375l1.234375 0l0.21875 1.21875l0.078125 0q0.203125 -0.359375 0.484375 -0.609375q0.296875 -0.265625 0.640625 -0.4375q0.34375 -0.171875 0.71875 -0.25q0.390625 -0.09375 0.78125 -0.09375q1.515625 0 2.28125 0.796875q0.78125 0.796875 0.78125 2.53125l0 5.953125l-1.515625 0zm9.953964 -2.5q0 0.671875 -0.234375 1.171875q-0.234375 0.484375 -0.6875 0.828125q-0.453125 0.328125 -1.09375 0.5q-0.640625 0.171875 -1.4375 0.171875q-0.90625 0 -1.5625 -0.15625q-0.640625 -0.140625 -1.125 -0.421875l0 -1.375q0.25 0.125 0.5625 0.265625q0.328125 0.125 0.671875 0.21875q0.34375 0.09375 0.71875 0.15625q0.375 0.0625 0.734375 0.0625q0.53125 0 0.90625 -0.078125q0.390625 -0.09375 0.625 -0.265625q0.234375 -0.171875 0.34375 -0.40625q0.109375 -0.25 0.109375 -0.546875q0 -0.265625 -0.09375 -0.46875q-0.078125 -0.21875 -0.296875 -0.421875q-0.21875 -0.203125 -0.609375 -0.40625q-0.375 -0.203125 -0.96875 -0.46875q-0.59375 -0.25 -1.078125 -0.5q-0.46875 -0.25 -0.8125 -0.546875q-0.328125 -0.3125 -0.515625 -0.71875q-0.171875 -0.40625 -0.171875 -0.953125q0 -0.59375 0.234375 -1.03125q0.234375 -0.453125 0.640625 -0.765625q0.421875 -0.3125 1.0 -0.46875q0.578125 -0.15625 1.296875 -0.15625q0.796875 0 1.46875 0.171875q0.671875 0.171875 1.265625 0.453125l-0.515625 1.234375q-0.546875 -0.25 -1.125 -0.421875q-0.5625 -0.1875 -1.140625 -0.1875q-0.859375 0 -1.265625 0.28125q-0.40625 0.28125 -0.40625 0.796875q0 0.28125 0.09375 0.5q0.109375 0.21875 0.328125 0.40625q0.234375 0.1875 0.625 0.390625q0.390625 0.1875 0.96875 0.4375q0.609375 0.25 1.078125 0.5q0.46875 0.25 0.796875 0.5625q0.328125 0.296875 0.5 0.703125q0.171875 0.390625 0.171875 0.953125zm5.9742126 2.671875q-0.90625 0 -1.671875 -0.3125q-0.75 -0.3125 -1.296875 -0.890625q-0.546875 -0.59375 -0.84375 -1.46875q-0.296875 -0.875 -0.296875 -1.984375q0 -1.140625 0.265625 -2.015625q0.28125 -0.890625 0.78125 -1.515625q0.5 -0.625 1.1875 -0.9375q0.703125 -0.328125 1.53125 -0.328125q0.828125 0 1.484375 0.296875q0.65625 0.296875 1.109375 0.828125q0.453125 0.53125 0.703125 1.28125q0.25 0.75 0.25 1.671875l0 0.9375l-5.75 0q0.046875 1.59375 0.671875 2.359375q0.640625 0.75 1.890625 0.75q0.421875 0 0.78125 -0.03125q0.359375 -0.046875 0.6875 -0.125q0.34375 -0.078125 0.65625 -0.203125q0.328125 -0.125 0.65625 -0.265625l0 1.34375q-0.34375 0.15625 -0.671875 0.28125q-0.3125 0.109375 -0.65625 0.171875q-0.328125 0.078125 -0.6875 0.109375q-0.359375 0.046875 -0.78125 0.046875zm-0.375 -8.203125q-0.9375 0 -1.5 0.65625q-0.546875 0.640625 -0.640625 1.875l4.078125 0q0 -0.5625 -0.109375 -1.03125q-0.109375 -0.46875 -0.34375 -0.796875q-0.234375 -0.328125 -0.609375 -0.515625q-0.359375 -0.1875 -0.875 -0.1875z" fill-rule="nonzero"></path><path fill="#000000" fill-opacity="0.0" d="m112.0 70.461945l66.80315 0l0 29.984253l-66.80315 0z" fill-rule="nonzero"></path><path fill="#000000" d="m134.42111 94.821945l-1.453125 0l0 -5.328125l-5.2031326 0l0 5.328125l-1.453125 0l0 -11.421875l1.453125 0l0 4.8125l5.2031326 0l0 -4.8125l1.453125 0l0 11.421875zm6.4375 0l-1.46875 0l0 -10.140625l-3.265625 0l0 -1.28125l7.984375 0l0 1.28125l-3.25 0l0 10.140625zm9.6953125 0l-3.46875 -10.0l-0.0625 0q0.046875 0.578125 0.078125 1.140625q0.03125 0.5 0.046875 1.046875q0.03125 0.53125 0.03125 0.984375l0 6.828125l-1.34375 0l0 -11.421875l2.15625 0l3.21875 9.3125l0.046875 0l3.234375 -9.3125l2.15625 0l0 11.421875l-1.453125 0l0 -6.9375q0 -0.40625 0.015625 -0.921875q0.015625 -0.53125 0.03125 -1.0q0.03125 -0.5625 0.0625 -1.125l-0.0625 0l-3.5 9.984375l-1.1875 0zm9.203125 0l0 -11.421875l1.453125 0l0 10.125l4.46875 0l0 1.296875l-5.921875 0z" fill-rule="nonzero"></path></g></svg>

